<svg width="487" height="175" viewBox="0 0 487 175" fill="none" xmlns="http://www.w3.org/2000/svg">
<g clip-path="url(#clip0_4_36)">
<path d="M32.2 47H2V23H89.6V47H59.4V163H32.2V47ZM101.202 163V23H128.602V139.8H170.202V163H101.202ZM183.819 163V23H211.219V82H212.219L237.219 23H265.419L236.219 89.8L266.819 163H236.419L212.619 101.8H211.219V163H183.819Z" fill="white"/>
<path d="M356.997 115.4C356.73 119.8 356.464 124.267 356.197 128.8C355.93 133.2 355.197 137.467 353.997 141.6C352.93 145.733 351.197 149.467 348.797 152.8C346.53 156.133 343.264 158.8 338.997 160.8C335.264 162.667 331.264 163.933 326.997 164.6C322.73 165.4 318.464 165.733 314.197 165.6C309.93 165.467 305.797 164.8 301.797 163.6C297.797 162.533 294.197 161 290.997 159C287.797 157 285.197 154.4 283.197 151.2C281.197 148 279.597 144.533 278.397 140.8C277.33 137.067 276.597 133.2 276.197 129.2C275.797 125.2 275.53 121.467 275.397 118C274.864 108.8 274.864 99.7333 275.397 90.8C275.397 89.0667 275.397 87.1333 275.397 85C275.397 82.7333 275.53 80.5333 275.797 78.4C276.197 76.2667 276.797 74.3333 277.597 72.6C278.397 70.7333 279.73 69.3333 281.597 68.4C285.597 66.2667 289.264 66.1333 292.597 68C296.064 69.8667 298.13 73.7333 298.797 79.6C299.197 82.6667 299.33 86.0667 299.197 89.8C299.197 93.5333 299.33 96.9333 299.597 100C299.73 104.533 299.864 109.467 299.997 114.8C300.13 120 300.864 124.667 302.197 128.8C303.664 132.933 305.997 136.067 309.197 138.2C312.53 140.2 317.464 140.267 323.997 138.4C327.064 137.467 329.064 135.133 329.997 131.4C331.064 127.667 331.597 122.133 331.597 114.8C331.597 111.6 331.53 108.067 331.397 104.2C331.264 100.333 331.197 96.5333 331.197 92.8C331.197 88.9333 331.264 85.4 331.397 82.2C331.664 78.8667 332.064 76.3333 332.597 74.6C333.264 72.2 334.664 70.4 336.797 69.2C338.93 68 341.197 67.4 343.597 67.4C345.997 67.2667 348.264 67.7333 350.397 68.8C352.53 69.8667 353.997 71.6 354.797 74C355.597 76.1333 356.13 78.8667 356.397 82.2C356.797 85.4 357.064 88.9333 357.197 92.8C357.33 96.5333 357.33 100.4 357.197 104.4C357.197 108.267 357.13 111.933 356.997 115.4ZM421.23 127.8C418.696 126.2 415.83 124.933 412.63 124C409.563 123.067 406.363 122.2 403.03 121.4C399.83 120.6 396.696 119.733 393.63 118.8C390.563 117.733 387.763 116.267 385.23 114.4C379.763 110.267 376.563 105.2 375.63 99.2C374.83 93.0667 376.163 86.9333 379.63 80.8C381.496 77.6 383.963 75 387.03 73C390.096 70.8667 393.43 69.2667 397.03 68.2C400.763 67 404.563 66.3333 408.43 66.2C412.296 66.0667 415.963 66.2667 419.43 66.8C421.696 67.2 424.096 67.8 426.63 68.6C429.163 69.2667 431.496 70.2 433.63 71.4C435.896 72.6 437.896 74.1333 439.63 76C441.496 77.7333 442.83 79.9333 443.63 82.6C444.163 84.3333 444.23 86 443.83 87.6C443.563 89.2 442.896 90.5333 441.83 91.6C440.896 92.6667 439.63 93.4667 438.03 94C436.563 94.5333 434.963 94.6667 433.23 94.4C431.23 94 429.363 93.4 427.63 92.6C425.896 91.8 424.163 90.9333 422.43 90C420.696 89.0667 418.896 88.2667 417.03 87.6C415.296 86.9333 413.43 86.6 411.43 86.6C408.363 86.4667 405.83 87 403.83 88.2C401.83 89.4 400.43 90.8667 399.63 92.6C398.963 94.3333 399.03 96.2 399.83 98.2C400.763 100.2 402.63 101.933 405.43 103.4C407.963 104.733 410.763 105.8 413.83 106.6C416.896 107.4 419.896 108.2 422.83 109C425.896 109.8 428.83 110.733 431.63 111.8C434.563 112.867 437.163 114.333 439.43 116.2C443.83 119.8 446.496 124 447.43 128.8C448.496 133.6 448.23 138.333 446.63 143C445.03 147.667 442.23 151.8 438.23 155.4C434.363 159 429.763 161.4 424.43 162.6C420.563 163.4 416.363 163.8 411.83 163.8C407.43 163.8 403.03 163.333 398.63 162.4C394.363 161.467 390.23 160 386.23 158C382.363 156 379.096 153.467 376.43 150.4C374.563 148.267 373.563 145.867 373.43 143.2C373.43 140.4 373.963 138 375.03 136C376.23 133.867 377.896 132.4 380.03 131.6C382.163 130.8 384.563 131.267 387.23 133C389.363 134.467 391.896 135.933 394.83 137.4C397.763 138.733 400.696 139.8 403.63 140.6C406.563 141.4 409.363 141.8 412.03 141.8C414.83 141.8 417.23 141.2 419.23 140C422.163 138.133 423.696 136 423.83 133.6C423.963 131.067 423.096 129.133 421.23 127.8Z" fill="#FF0000"/>
<path d="M468.506 126.599C471.598 126.599 474.618 127.396 477.563 128.991C480.509 130.57 482.804 132.84 484.448 135.803C486.092 138.749 486.914 141.825 486.914 145.031C486.914 148.205 486.1 151.257 484.473 154.187C482.861 157.116 480.591 159.395 477.661 161.022C474.748 162.634 471.696 163.439 468.506 163.439C465.316 163.439 462.256 162.634 459.326 161.022C456.413 159.395 454.142 157.116 452.515 154.187C450.887 151.257 450.073 148.205 450.073 145.031C450.073 141.825 450.895 138.749 452.539 135.803C454.199 132.84 456.502 130.57 459.448 128.991C462.394 127.396 465.413 126.599 468.506 126.599ZM468.506 129.65C465.918 129.65 463.395 130.318 460.938 131.652C458.496 132.971 456.584 134.867 455.2 137.341C453.817 139.799 453.125 142.362 453.125 145.031C453.125 147.684 453.8 150.231 455.151 152.673C456.519 155.098 458.423 156.994 460.864 158.361C463.306 159.712 465.853 160.388 468.506 160.388C471.159 160.388 473.706 159.712 476.147 158.361C478.589 156.994 480.485 155.098 481.836 152.673C483.187 150.231 483.862 147.684 483.862 145.031C483.862 142.362 483.171 139.799 481.787 137.341C480.42 134.867 478.507 132.971 476.05 131.652C473.592 130.318 471.077 129.65 468.506 129.65ZM460.425 155.212V135.388H467.236C469.564 135.388 471.248 135.575 472.29 135.949C473.332 136.307 474.162 136.942 474.78 137.854C475.399 138.765 475.708 139.733 475.708 140.759C475.708 142.207 475.187 143.469 474.146 144.543C473.12 145.617 471.753 146.219 470.044 146.35C470.744 146.643 471.305 146.993 471.729 147.399C472.526 148.181 473.503 149.491 474.658 151.33L477.075 155.212H473.169L471.411 152.087C470.028 149.629 468.913 148.091 468.066 147.473C467.48 147.017 466.626 146.789 465.503 146.789H463.623V155.212H460.425ZM463.623 144.055H467.505C469.36 144.055 470.622 143.778 471.289 143.225C471.973 142.671 472.314 141.939 472.314 141.027C472.314 140.441 472.152 139.921 471.826 139.465C471.501 138.993 471.045 138.643 470.459 138.415C469.889 138.187 468.823 138.073 467.261 138.073H463.623V144.055Z" fill="#FF0000"/>
</g>
<defs>
<clipPath id="clip0_4_36">
<rect width="487" height="175" fill="white"/>
</clipPath>
</defs>
</svg>
